# xmcd
#
# Track frame offsets: 
#        182
#        15005
#        29957
#        43892
#        57505
#        79345
#        92290
#        111422
#        129950
#        146152
#        159435
#        175912
#        188697
#        203735
#
# Disc length: 2922 seconds
#
# Revision: 0
# Processed by: cddbd v1.5.2PL0 Copyright (c) Steve Scherf et al.
# Submitted via: ExactAudioCopy v0.95b4
#
DISCID=bb0b680e
DTITLE=Various Artist - Autofahrer unterwegs  Folge 4_CD1
DYEAR=1900
DGENRE=Schlager
TTITLE0=Roland B. - Du bist das M‰dchen
TTITLE1=Blue Diamonds - So wie die Nacht vergeht
TTITLE2=Markuss Ess - Hallo, Lady Wunderbar
TTITLE3=Tom Astor - Der Truck, das ist mein Leben
TTITLE4=Jonny Hill - Ruf Teddyb‰r Eins-Vier
TTITLE5=Manny Sax - Kleine Bianca
TTITLE6=New Mevericks - Auf dem Weg
TTITLE7=Die Paldauer - Du muﬂt nicht weinen, My Love
TTITLE8=Die Mikados - Das Feuer der Liebe
TTITLE9=Die Reintaler - Die Sterne von Rhodos
TTITLE10=Joe Williams Band - Wir war¥n den Sternen so Nah
TTITLE11=Lolita - Seemann, deine Heimat ist das Meer
TTITLE12=Roy Black - Und nun ist es doch gescheh¥n
TTITLE13=Andreas - Komm zu mir
EXTD=
EXTT0=
EXTT1=
EXTT2=
EXTT3=
EXTT4=
EXTT5=
EXTT6=
EXTT7=
EXTT8=
EXTT9=
EXTT10=
EXTT11=
EXTT12=
EXTT13=
PLAYORDER=
